<?xml version="1.0" encoding="UTF-8" standalone="no"?>
<!-- Created with Inkscape (http://www.inkscape.org/) -->

<svg
   xmlns:dc="http://purl.org/dc/elements/1.1/"
   xmlns:cc="http://creativecommons.org/ns#"
   xmlns:rdf="http://www.w3.org/1999/02/22-rdf-syntax-ns#"
   xmlns:svg="http://www.w3.org/2000/svg"
   xmlns="http://www.w3.org/2000/svg"
   xmlns:sodipodi="http://sodipodi.sourceforge.net/DTD/sodipodi-0.dtd"
   xmlns:inkscape="http://www.inkscape.org/namespaces/inkscape"
   width="110.26017mm"
   height="95.405853mm"
   viewBox="0 0 390.68564 338.05223"
   id="svg2"
   version="1.1"
   inkscape:version="0.91 r13725"
   sodipodi:docname="semipro_inverted.svg">
  <defs
     id="defs4" />
  <sodipodi:namedview
     id="base"
     pagecolor="#000000"
     bordercolor="#666666"
     borderopacity="1.0"
     inkscape:pageopacity="0"
     inkscape:pageshadow="2"
     inkscape:zoom="1"
     inkscape:cx="103.01818"
     inkscape:cy="218.41193"
     inkscape:document-units="px"
     inkscape:current-layer="layer1"
     showgrid="false"
     inkscape:window-width="1440"
     inkscape:window-height="851"
     inkscape:window-x="0"
     inkscape:window-y="1"
     inkscape:window-maximized="1"
     showguides="true"
     inkscape:guide-bbox="true"
     fit-margin-top="0"
     fit-margin-left="0"
     fit-margin-right="0"
     fit-margin-bottom="0">
    <inkscape:grid
       type="xygrid"
       id="grid3355"
       originx="-269.80961"
       originy="-351.0886" />
  </sodipodi:namedview>
  <metadata
     id="metadata7">
    <rdf:RDF>
      <cc:Work
         rdf:about="">
        <dc:format>image/svg+xml</dc:format>
        <dc:type
           rdf:resource="http://purl.org/dc/dcmitype/StillImage" />
        <dc:title></dc:title>
      </cc:Work>
    </rdf:RDF>
  </metadata>
  <g
     inkscape:label="Layer 1"
     inkscape:groupmode="layer"
     id="layer1"
     transform="translate(-269.80961,-363.22135)">
    <text
       xml:space="preserve"
       style="font-style:normal;font-weight:normal;font-size:40px;line-height:125%;font-family:sans-serif;letter-spacing:0px;word-spacing:0px;fill:#000000;fill-opacity:1;stroke:none;stroke-width:1px;stroke-linecap:butt;stroke-linejoin:miter;stroke-opacity:1"
       x="342.32809"
       y="566.71277"
       id="text4704"
       sodipodi:linespacing="125%"><tspan
         sodipodi:role="line"
         id="tspan4706"
         x="342.32809"
         y="566.71277" /></text>
    <g
       id="g5275">
      <g
         transform="translate(-0.156121,-0.0928458)"
         id="g4744">
        <path
           inkscape:connector-curvature="0"
           id="path4147"
           style="font-style:normal;font-variant:normal;font-weight:normal;font-stretch:normal;font-size:180px;line-height:125%;font-family:'Blenda Script';-inkscape-font-specification:'Blenda Script';letter-spacing:0px;word-spacing:0px;fill:#ffffff;fill-opacity:1;stroke:none;stroke-width:1px;stroke-linecap:butt;stroke-linejoin:miter;stroke-opacity:1"
           d="m 454.19719,555.86843 0.007,-5.71826 -23.97799,8.31868 -0.0116,142.89757 23.97799,-8.31868 -0.20235,-54.80092 c 4.55171,2.99347 15.60055,2.97079 22.57287,0.55188 6.63221,-2.30091 12.14519,-6.69035 15.9938,-12.21709 3.81363,-4.75251 6.23424,-10.16489 7.80579,-16.23532 3.41445,-11.66344 3.70277,-24.52862 1.71159,-36.03141 -4.49008,-24.73466 -24.89433,-46.42506 -47.8774,-18.44645 z m 25.48294,38.0283 c 0.0904,9.11382 -1.31471,17.98439 -3.77031,24.171 -4.05849,10.17215 -12.32857,17.23283 -21.80344,9.27899 l 0.21499,-62.18565 c 19.74836,-23.99853 25.17794,10.50802 25.35876,28.73566 z" />
        <path
           inkscape:connector-curvature="0"
           id="path4149"
           style="font-style:normal;font-variant:normal;font-weight:normal;font-stretch:normal;font-size:180px;line-height:125%;font-family:'Blenda Script';-inkscape-font-specification:'Blenda Script';letter-spacing:0px;word-spacing:0px;fill:#ffffff;fill-opacity:1;stroke:none;stroke-width:1px;stroke-linecap:butt;stroke-linejoin:miter;stroke-opacity:1"
           d="m 536.34518,542.42029 -0.10965,-20.72915 -23.29776,8.08269 -0.29114,95.36337 23.97799,-8.31868 -0.23612,-54.97973 c 5.87005,-17.85005 17.79388,-36.21241 33.56085,-30.44149 3.12304,-6.68431 6.21774,-12.82598 11.41503,-18.98025 -18.9972,-3.26131 -37.85139,7.51142 -45.0192,30.00324 z"
           sodipodi:nodetypes="ccccccccc" />
        <path
           inkscape:connector-curvature="0"
           id="path4151"
           style="font-style:normal;font-variant:normal;font-weight:normal;font-stretch:normal;font-size:180px;line-height:125%;font-family:'Blenda Script';-inkscape-font-specification:'Blenda Script';letter-spacing:0px;word-spacing:0px;fill:#ffffff;fill-opacity:1;stroke:none;stroke-width:1px;stroke-linecap:butt;stroke-linejoin:miter;stroke-opacity:1"
           d="m 658.99305,499.66951 c -4.6989,5.82173 -10.68949,11.52002 -17.15406,15.66802 -0.91177,-4.82785 -2.57252,-8.82428 -4.57458,-11.74967 -12.07995,-17.90998 -35.54898,-8.81525 -49.54071,6.32724 -14.0255,14.96368 -20.4781,36.44527 -19.07311,54.43874 1.40619,17.04043 10.09227,30.4121 27.05569,31.00482 21.5863,1.08468 50.24515,-25.62411 47.47742,-68.10354 6.02436,-5.51948 11.88109,-12.88605 17.46767,-21.68309 z m -35.43946,38.77795 c 1.15044,31.03746 -8.92878,43.86995 -18.03703,41.69519 -16.8235,-3.68966 -16.5664,-45.50378 -10.49495,-61.32793 7.02546,-17.4888 19.9678,-9.40425 25.18762,2.88367 -2.75346,-0.18789 -17.28139,-1.98722 -19.89736,-3.36596 -2.34313,1.25511 -5.8469,16.36495 -4.95213,17.89417 6.65993,2.64312 22.41435,2.32069 28.05877,1.50562 0.0338,0.17881 0.10131,0.53643 0.13508,0.71524 z"
           sodipodi:nodetypes="ccccccccccccccccc" />
      </g>
      <g
         id="text4157"
         style="font-style:normal;font-variant:normal;font-weight:normal;font-stretch:normal;font-size:180px;line-height:125%;font-family:'Blenda Script';-inkscape-font-specification:'Blenda Script';letter-spacing:0px;word-spacing:0px;fill:#ffffff;fill-opacity:1;stroke:none;stroke-width:1px;stroke-linecap:butt;stroke-linejoin:miter;stroke-opacity:1"
         transform="matrix(0.94475917,-0.32776521,0.18760652,0.99338449,0,0)">
        <path
           id="path5267"
           d="m 261.37151,568.90515 c 1.8,-8.46 1.8,-16.38 -0.36,-23.04 -4.86,-13.68 -18,-21.6 -34.02,-23.4 -11.52,-1.08 -22.68,0.9 -33.12,6.12 -18.72,9.54 -22.32,29.16 -13.5,45.18 3.24,5.94 9.54,12.78 15.48,17.64 5.94,4.32 10.08,7.2 17.1,12.24 6.48,5.22 14.4,13.14 10.98,22.5 -2.7,8.46 -8.64,14.22 -15.12,16.92 -12.42,5.94 -27.36,2.88 -30.24,-5.58 -2.52,-7.02 3.24,-16.02 17.1,-21.24 l -16.56,-16.92 c -13.5,6.66 -19.44,21.96 -17.46,35.28 6.84,43.56 103.5,29.7 91.98,-26.46 -1.44,-7.02 -5.4,-12.24 -10.62,-16.56 -5.04,-4.86 -11.7,-9 -18,-13.32 -5.76,-3.6 -11.88,-8.46 -14.76,-12.06 -3.24,-4.14 -3.78,-4.86 -4.5,-10.44 -0.72,-5.58 3.06,-13.5 8.46,-17.1 5.04,-3.42 10.98,-5.04 16.02,-4.68 13.68,1.98 9.9,16.38 6.84,24.12 l 24.3,10.8 z"
           inkscape:connector-curvature="0" />
        <path
           id="path5269"
           d="m 331.37745,626.50515 c -8.46,14.04 -23.04,24.84 -36.9,18.36 -7.74,-3.78 -10.98,-13.86 -11.16,-22.5 15.48,0.54 30.6,-5.04 38.7,-19.98 5.4,-10.62 5.22,-24.3 -3.96,-31.68 -10.26,-8.64 -33.66,-4.14 -47.34,17.1 -16.74,26.64 -16.2,69.66 17.82,70.74 20.52,0.54 35.28,-6.12 49.32,-32.04 l -6.48,0 z m -47.34,-14.58 c 1.98,-10.08 5.22,-18.18 9,-23.94 6.48,-10.26 14.4,-13.68 18,-10.98 4.5,3.6 1.26,37.8 -27.18,36.9 0,-0.54 0.18,-1.26 0.18,-1.98 z"
           inkscape:connector-curvature="0" />
        <path
           id="path5271"
           d="m 469.57526,626.86515 c -5.94,17.1 -30.06,25.92 -27,11.7 2.7,-14.58 2.88,-15.12 4.32,-22.86 l 2.88,-16.02 c 8.64,-42.3 -23.76,-40.5 -42.66,-14.76 -1.62,-24.66 -27.54,-22.5 -41.94,-5.22 l 2.34,-12.24 -24.84,0 -18,90 24.84,0 12.42,-61.92 c 0.18,-0.36 0.18,-0.54 0.36,-0.72 7.38,-15.12 25.56,-26.46 22.14,-7.38 -3.6,19.62 -7.38,41.94 -12.42,70.02 l 23.76,0 c 0.9,-4.68 9.18,-52.2 10.26,-57.78 0.18,-0.72 0.36,-1.08 0.54,-1.44 6.48,-16.56 25.92,-31.86 21.6,-11.34 -2.88,15.66 -5.76,30.06 -8.28,43.92 -7.56,40.14 42.3,34.74 56.7,-3.96 l -7.02,0 z"
           inkscape:connector-curvature="0" />
        <path
           id="path5273"
           d="m 516.2712,625.60515 c -6.12,17.64 -32.94,33.66 -28.8,12.06 4.14,-21.24 8.28,-39.78 14.04,-70.2 l -24.84,0 -11.88,57.06 c -10.08,50.4 44.28,39.96 58.5,1.08 l -7.02,0 z m -23.76,-68.22 c 3.96,0 7.38,-1.26 10.26,-3.96 2.88,-2.7 4.5,-5.94 4.5,-10.08 0,-3.96 -1.44,-7.2 -4.32,-10.08 -2.7,-2.7 -5.76,-4.14 -9.9,-4.14 -4.14,0 -7.38,1.44 -10.26,4.14 -2.7,2.88 -3.96,6.12 -4.14,10.08 0,4.14 1.26,7.38 3.78,10.08 2.7,2.7 6.12,3.96 10.08,3.96 z"
           inkscape:connector-curvature="0" />
      </g>
    </g>
  </g>
</svg>
