<?xml version="1.0" encoding="UTF-8" standalone="no"?>
<!-- Created with Inkscape (http://www.inkscape.org/) -->

<svg
   xmlns:dc="http://purl.org/dc/elements/1.1/"
   xmlns:cc="http://creativecommons.org/ns#"
   xmlns:rdf="http://www.w3.org/1999/02/22-rdf-syntax-ns#"
   xmlns:svg="http://www.w3.org/2000/svg"
   xmlns="http://www.w3.org/2000/svg"
   xmlns:sodipodi="http://sodipodi.sourceforge.net/DTD/sodipodi-0.dtd"
   xmlns:inkscape="http://www.inkscape.org/namespaces/inkscape"
   width="297mm"
   height="210mm"
   viewBox="0 0 1052.3622 744.09448"
   id="svg2"
   version="1.1"
   inkscape:version="0.91 r13725"
   sodipodi:docname="semipro_inverted.svg">
  <defs
     id="defs4" />
  <sodipodi:namedview
     id="base"
     pagecolor="#000000"
     bordercolor="#666666"
     borderopacity="1.0"
     inkscape:pageopacity="0"
     inkscape:pageshadow="2"
     inkscape:zoom="1"
     inkscape:cx="536.90784"
     inkscape:cy="449.72353"
     inkscape:document-units="px"
     inkscape:current-layer="layer1"
     showgrid="true"
     inkscape:window-width="1440"
     inkscape:window-height="851"
     inkscape:window-x="0"
     inkscape:window-y="1"
     inkscape:window-maximized="1"
     showguides="true"
     inkscape:guide-bbox="true">
    <inkscape:grid
       type="xygrid"
       id="grid3355" />
    <sodipodi:guide
       position="430.00001,506"
       orientation="1,0"
       id="guide4749" />
  </sodipodi:namedview>
  <metadata
     id="metadata7">
    <rdf:RDF>
      <cc:Work
         rdf:about="">
        <dc:format>image/svg+xml</dc:format>
        <dc:type
           rdf:resource="http://purl.org/dc/dcmitype/StillImage" />
        <dc:title />
      </cc:Work>
    </rdf:RDF>
  </metadata>
  <g
     inkscape:label="Layer 1"
     inkscape:groupmode="layer"
     id="layer1"
     transform="translate(0,-308.26772)">
    <g
       id="g4738"
       transform="translate(124.15099,367.88858)">
      <path
         d="m 355.08416,511.46506 c 0.31361,-6.01507 -0.767,-11.73696 -3.27803,-15.43841 -5.83736,-7.88213 -16.50989,-9.70473 -29.39922,-5.99513 -9.01179,2.17383 -17.65212,6.31457 -24.93563,12.84246 -13.61301,11.39112 -13.83499,25.56697 -4.76777,33.28119 3.19125,3.46545 9.20472,6.52337 14.13273,7.67156 4.89303,1.92244 8.56432,2.17295 15.19168,3.68422 5.47074,2.10305 12.57209,5.1646 11.16939,12.12908 -1.19766,6.13125 -4.94375,11.24137 -9.9128,15.63263 -8.81402,7.05887 -17.19991,4.20524 -20.52503,-0.9285 -3.12251,-4.06088 -2.82089,-6.59513 7.081,-13.65036 l -14.71165,-6.89915 c -9.3254,8.1889 -12.56979,19.79334 -9.58842,27.9042 10.60608,27.37597 84.21895,-7.8793 68.35201,-42.00373 -2.37474,-3.93925 -5.73726,-6.39266 -10.08635,-8.31328 -4.82549,-1.56481 -10.53504,-3.01344 -15.39551,-3.80402 -5.64201,-1.09102 -10.4675,-2.65583 -13.865,-4.33501 -2.6835,-1.73636 -3.29498,-2.09579 -4.54807,-5.8526 -1.35561,-3.34019 0.55604,-9.52862 5.3888,-13.68207 2.58825,-3.56529 7.45357,-6.58689 11.32989,-7.1696 10.37225,-2.64582 9.33859,8.19165 7.80081,14.44089 z"
         id="path4157"
         inkscape:connector-curvature="0"
         sodipodi:nodetypes="cccccccccccccccccccccc"
         style="font-style:normal;font-variant:normal;font-weight:normal;font-stretch:normal;font-size:medium;line-height:125%;font-family:'Blenda Script';-inkscape-font-specification:'Blenda Script';letter-spacing:0px;word-spacing:0px;fill:#ffffff;fill-opacity:1;stroke:none;stroke-width:1px;stroke-linecap:butt;stroke-linejoin:miter;stroke-opacity:1" />
      <path
         d="m 430.96851,515.43194 c -5.35867,16.72001 -17.10711,32.22738 -31.41716,30.33308 -8.02159,-1.21809 -12.97368,-10.16945 -14.76466,-18.69329 14.72618,-4.53738 27.9641,-15.03628 32.8138,-32.53234 3.10932,-12.31967 0.37281,-25.85018 -9.68462,-30.17247 -11.31415,-5.21997 -32.57728,6.91997 -41.51683,32.50328 -10.81743,31.95055 -2.23642,74.50896 30.1069,64.43124 19.48776,-6.18931 32.18295,-17.64307 40.58461,-47.99342 l -6.12204,2.12392 z m -47.4602,1.03286 c -0.0204,-10.66229 1.52095,-19.77066 4.01153,-26.73151 4.1972,-12.31604 11.03807,-18.30932 14.94574,-16.80714 4.9268,2.10125 8.28193,37.13695 -18.75587,45.56455 -0.10131,-0.53643 -0.0663,-1.31066 -0.2014,-2.0259 z"
         style="font-style:normal;font-variant:normal;font-weight:normal;font-stretch:normal;font-size:medium;line-height:125%;font-family:'Blenda Script';-inkscape-font-specification:'Blenda Script';letter-spacing:0px;word-spacing:0px;fill:#ffffff;fill-opacity:1;stroke:none;stroke-width:1px;stroke-linecap:butt;stroke-linejoin:miter;stroke-opacity:1"
         id="path4159"
         inkscape:connector-curvature="0" />
      <path
         d="m 561.5997,470.49313 c -2.4038,18.9338 -23.5367,35.60114 -23.31351,20.47226 -0.18445,-15.36852 -0.1157,-15.96394 -0.20732,-24.12472 l -0.28455,-16.85798 c 0.22696,-44.85206 -30.04554,-32.44437 -43.0725,-0.67989 -6.15689,-23.96589 -30.23981,-13.3245 -40.60251,8.561 l -0.0856,-12.92599 -23.46782,8.14168 -0.12108,95.30438 23.46782,-8.14169 0.11731,-65.58121 c 0.10252,-0.41661 0.0687,-0.59542 0.20504,-0.83323 4.13571,-17.43888 19.18397,-34.66263 19.53243,-14.5879 0.27971,20.67016 0.8959,44.08145 1.4023,73.62763 l 22.44748,-7.78771 c -0.0277,-4.94402 -1.12017,-54.86355 -1.14668,-60.76062 0.035,-0.77424 0.1375,-1.19085 0.24002,-1.60747 3.01527,-18.57436 18.51101,-40.1449 18.27934,-18.34471 0.21701,16.50037 0.19764,31.74907 0.41707,46.34334 0.38815,42.35236 46.48076,20.64571 52.82492,-22.51809 l -6.6322,2.30092 z"
         style="font-style:normal;font-variant:normal;font-weight:normal;font-stretch:normal;font-size:medium;line-height:125%;font-family:'Blenda Script';-inkscape-font-specification:'Blenda Script';letter-spacing:0px;word-spacing:0px;fill:#ffffff;fill-opacity:1;stroke:none;stroke-width:1px;stroke-linecap:butt;stroke-linejoin:miter;stroke-opacity:1"
         id="path4161"
         inkscape:connector-curvature="0" />
      <path
         d="m 605.47973,453.93616 c -2.47255,19.52922 -24.80553,44.23391 -24.94653,21.41985 -0.0735,-22.45643 0.35962,-42.23073 0.0944,-74.33741 l -23.46782,8.14169 -0.51891,60.57637 c -0.0678,53.37045 49.33069,25.1822 55.47103,-18.10141 l -6.63221,2.30091 z m -35.246,-59.98099 c 3.74125,-1.29795 6.73594,-3.67057 8.95031,-7.29667 2.21437,-3.62611 3.13703,-7.37565 2.36034,-11.48826 -0.74292,-3.93381 -2.71122,-6.68039 -5.97243,-8.59737 -3.05739,-1.79718 -6.2185,-2.22469 -10.12981,-0.86774 -3.9113,1.35695 -6.70217,3.84938 -8.91653,7.47548 -2.01055,3.74592 -2.5931,7.37747 -2.02023,11.37027 0.77669,4.11261 2.57493,6.91819 5.46226,8.77436 3.05739,1.79717 6.52485,1.92788 10.26609,0.62993 z"
         style="font-style:normal;font-variant:normal;font-weight:normal;font-stretch:normal;font-size:medium;line-height:125%;font-family:'Blenda Script';-inkscape-font-specification:'Blenda Script';letter-spacing:0px;word-spacing:0px;fill:#ffffff;fill-opacity:1;stroke:none;stroke-width:1px;stroke-linecap:butt;stroke-linejoin:miter;stroke-opacity:1"
         id="path4163"
         inkscape:connector-curvature="0" />
    </g>
    <g
       id="g4744"
       transform="translate(-0.156121,-0.0928458)">
      <path
         d="m 454.19719,555.86843 0.007,-5.71826 -23.97799,8.31868 -0.0116,142.89757 23.97799,-8.31868 -0.20235,-54.80092 c 4.55171,2.99347 15.60055,2.97079 22.57287,0.55188 6.63221,-2.30091 12.14519,-6.69035 15.9938,-12.21709 3.81363,-4.75251 6.23424,-10.16489 7.80579,-16.23532 3.41445,-11.66344 3.70277,-24.52862 1.71159,-36.03141 -4.49008,-24.73466 -24.89433,-46.42506 -47.8774,-18.44645 z m 25.48294,38.0283 c 0.0904,9.11382 -1.31471,17.98439 -3.77031,24.171 -4.05849,10.17215 -12.32857,17.23283 -21.80344,9.27899 l 0.21499,-62.18565 c 19.74836,-23.99853 25.17794,10.50802 25.35876,28.73566 z"
         style="font-style:normal;font-variant:normal;font-weight:normal;font-stretch:normal;font-size:180px;line-height:125%;font-family:'Blenda Script';-inkscape-font-specification:'Blenda Script';letter-spacing:0px;word-spacing:0px;fill:#ffffff;fill-opacity:1;stroke:none;stroke-width:1px;stroke-linecap:butt;stroke-linejoin:miter;stroke-opacity:1"
         id="path4147"
         inkscape:connector-curvature="0" />
      <path
         sodipodi:nodetypes="ccccccccc"
         d="m 536.34518,542.42029 -0.10965,-20.72915 -23.29776,8.08269 -0.29114,95.36337 23.97799,-8.31868 -0.23612,-54.97973 c 5.87005,-17.85005 17.79388,-36.21241 33.56085,-30.44149 3.12304,-6.68431 6.21774,-12.82598 11.41503,-18.98025 -18.9972,-3.26131 -37.85139,7.51142 -45.0192,30.00324 z"
         style="font-style:normal;font-variant:normal;font-weight:normal;font-stretch:normal;font-size:180px;line-height:125%;font-family:'Blenda Script';-inkscape-font-specification:'Blenda Script';letter-spacing:0px;word-spacing:0px;fill:#ffffff;fill-opacity:1;stroke:none;stroke-width:1px;stroke-linecap:butt;stroke-linejoin:miter;stroke-opacity:1"
         id="path4149"
         inkscape:connector-curvature="0" />
      <path
         sodipodi:nodetypes="ccccccccccccccccc"
         d="m 658.99305,499.66951 c -4.6989,5.82173 -10.68949,11.52002 -17.15406,15.66802 -0.91177,-4.82785 -2.57252,-8.82428 -4.57458,-11.74967 -12.07995,-17.90998 -35.54898,-8.81525 -49.54071,6.32724 -14.0255,14.96368 -20.4781,36.44527 -19.07311,54.43874 1.40619,17.04043 10.09227,30.4121 27.05569,31.00482 21.5863,1.08468 50.24515,-25.62411 47.47742,-68.10354 6.02436,-5.51948 11.88109,-12.88605 17.46767,-21.68309 z m -35.43946,38.77795 c 1.15044,31.03746 -8.92878,43.86995 -18.03703,41.69519 -16.8235,-3.68966 -16.5664,-45.50378 -10.49495,-61.32793 7.02546,-17.4888 19.9678,-9.40425 25.18762,2.88367 -2.75346,-0.18789 -17.28139,-1.98722 -19.89736,-3.36596 -2.34313,1.25511 -5.8469,16.36495 -4.95213,17.89417 6.65993,2.64312 22.41435,2.32069 28.05877,1.50562 0.0338,0.17881 0.10131,0.53643 0.13508,0.71524 z"
         style="font-style:normal;font-variant:normal;font-weight:normal;font-stretch:normal;font-size:180px;line-height:125%;font-family:'Blenda Script';-inkscape-font-specification:'Blenda Script';letter-spacing:0px;word-spacing:0px;fill:#ffffff;fill-opacity:1;stroke:none;stroke-width:1px;stroke-linecap:butt;stroke-linejoin:miter;stroke-opacity:1"
         id="path4151"
         inkscape:connector-curvature="0" />
    </g>
    <text
       xml:space="preserve"
       style="font-style:normal;font-weight:normal;font-size:40px;line-height:125%;font-family:sans-serif;letter-spacing:0px;word-spacing:0px;fill:#000000;fill-opacity:1;stroke:none;stroke-width:1px;stroke-linecap:butt;stroke-linejoin:miter;stroke-opacity:1"
       x="342.32809"
       y="566.71277"
       id="text4704"
       sodipodi:linespacing="125%"><tspan
         sodipodi:role="line"
         id="tspan4706"
         x="342.32809"
         y="566.71277" /></text>
    <text
       xml:space="preserve"
       style="font-style:normal;font-variant:normal;font-weight:normal;font-stretch:normal;font-size:180px;line-height:125%;font-family:'Blenda Script';-inkscape-font-specification:'Blenda Script';letter-spacing:0px;word-spacing:0px;fill:#ffffff;fill-opacity:1;stroke:none;stroke-width:1px;stroke-linecap:butt;stroke-linejoin:miter;stroke-opacity:1"
       x="159.67151"
       y="657.46515"
       id="text4157"
       sodipodi:linespacing="125%"
       transform="matrix(0.94475917,-0.32776521,0.18760652,0.99338449,0,0)"><tspan
         sodipodi:role="line"
         id="tspan4159"
         x="159.67151"
         y="657.46515">Semi</tspan></text>
  </g>
</svg>
